<svg width="144" height="39" viewBox="0 0 144 39" fill="none" xmlns="http://www.w3.org/2000/svg">
<path d="M20.4 1.7C21.4 1.6 22.6 1.5 23.8 1.7C24.3 1.8 24.8 1.8 25.3 1.9L26 2C26.2 2.1 26.5 2.1 26.7 2.2C27 2.3 27.2 2.4 27.5 2.5C28 2.2 28.5 1.9 28.9 1.8C29.2 1.7 29.5 1.7 29.8 1.7C29.9 1.7 30.1 1.8 30.3 1.8C30.5 1.9 30.6 1.9 30.7 2C30.9 2.2 31.1 2.3 31.2 2.6C31.3 2.8 31.4 3 31.5 3.2C31.7 3.6 31.8 4 31.8 4.4C31.8 4.8 31.7 5.2 31.6 5.5C31.5 5.6 31.4 5.7 31.3 5.9L31.1 6L30.7 6.2H30.6L30.7 6.5C30.9 7.1 31.1 7.9 31.2 8.7V8.9C31.5 9.1 31.8 9.2 32 9.4C32.4 9.7 32.7 10.1 32.8 10.5C32.9 10.7 32.9 10.9 33 11.2V11.6V12.3C33 12.4 33 12.5 33 12.5V12.7C33 12.8 32.9 13 32.8 13.5C32.6 14 32.3 14.5 32 14.9C31.7 15.3 31.3 15.8 30.8 16.2C30.3 16.6 29.8 16.9 29.2 17.2C29 17.3 28.9 17.4 28.8 17.4C28.7 17.4 28.5 17.5 28.3 17.6L27.3 17.9C27.2 17.9 27 18 26.8 18L25.5 18.2V18.3C25.9 18.3 26.2 18.3 26.6 18.5L27 18.7C27 18.7 27.1 18.8 27.2 18.8L27.4 18.9C27.6 19.1 27.7 19.3 27.8 19.4C28 19.8 28.2 20.2 28.3 20.6C28.4 21 28.4 21.4 28.5 21.7C28.6 22 28.5 22.5 28.5 22.8C28.5 23.2 28.4 23.5 28.3 23.8C28.2 24.2 28 24.5 27.8 24.7C27.9 25.1 28.1 25.5 28.1 25.8C28.2 26.1 28.2 26.3 28.3 26.5C28.3 26.8 28.4 27 28.4 27.2C28.4 27.4 28.4 27.5 28.3 27.6V27.7L28.2 27.8C28.2 27.9 28.1 27.9 28.1 27.9L28 28C28 28 27.9 28 27.8 28.1C27.8 28.1 27.7 28.1 27.6 28.2V28.3C27.6 28.6 27.5 28.9 27.4 29.1C27.3 29.5 27 29.9 26.7 30.3L26.5 30.6V30.8V31.1C26.4 32 26.1 33 25.6 34.1C25.3 34.7 25 35.6 24.5 36.6L24.2 37.1C24.1 37.3 24 37.5 23.9 37.7C23.6 38.1 23.4 38.4 23 38.6C22.6 38.8 22.3 38.9 21.9 38.9C21.5 38.9 21.2 38.8 20.8 38.7C20.5 38.6 20.2 38.4 20 38.1C19.8 37.9 19.7 37.6 19.5 37.3C19.3 36.9 19.1 36.4 19.1 35.9C18.9 35 18.8 34.3 18.8 33.7C18.8 33.6 18.8 33.3 18.8 33H18.7C18.5 33 18.2 33 17.8 33H17.3C17.2 33 17 33 16.8 32.9C16.8 32.9 16.4 32.8 15.5 32.7C15.4 33 15.2 33.5 15 34.2C14.8 34.7 14.7 35.2 14.5 35.6C14.3 36.1 14 36.6 13.8 37C13.6 37.3 13.4 37.5 13.3 37.6C13.1 37.8 12.9 38 12.7 38.1C12.5 38.2 12.3 38.3 12 38.4C11.7 38.5 11.5 38.5 11.3 38.5C10.8 38.5 10.4 38.3 10 38C9.7 37.8 9.4 37.4 9.2 37C9 36.7 8.9 36.3 8.8 35.9C8.7 35.3 8.6 34.6 8.5 33.9C8.5 33.8 8.5 33.2 8.5 32.3C8.5 31.3 8.5 30.5 8.6 29.9H8.5C8.1 29.9 7.8 29.8 7.5 29.7C7.2 29.6 7 29.3 6.8 29C6.7 28.8 6.6 28.5 6.6 28.2C6.6 28 6.6 27.8 6.7 27.5C6.8 27.4 6.9 27.2 7 27L7.1 26.9C6.9 27 6.6 27 6.4 27C6 27 5.5 26.9 5 26.8C4.5 26.6 3.9 26.4 3.4 26C2.7 25.6 2.2 25.1 1.7 24.6C1.4 24.3 1.1 23.9 0.9 23.5C0.2 23.4 0 23 0 22.5C0 22.2 0 21.9 0 21.7C0.1 21.4 0.2 21.2 0.3 20.9C0.4 20.7 0.5 20.5 0.7 20.2C0.8 20.1 0.8 20.1 0.9 20C1 19.8 1.2 19.6 1.2 19.5C1.5 19 1.7 18.5 1.8 18C1.8 17.8 1.9 17.5 1.9 17.1V15.7H1.8C1.7 15.7 1.6 15.6 1.6 15.5C1.5 15.6 1.5 15.7 1.4 15.7C1.2 15.9 1 16 0.9 16C0.8 16 0.7 16 0.6 16V15.9C0.6 15.9 0.7 15.8 0.7 15.7C0.8 15.6 0.9 15.4 1 15.3C1.1 15.2 1.1 15.1 1.1 15C0.9 14.7 0.7 14.3 0.7 13.9C0.6 13.5 0.7 13 0.8 12.5C0.8 12.3 0.9 12 1 11.7C1.1 11.4 1.2 11.2 1.3 10.9C1.4 10.6 1.6 10.4 1.7 10.1C1.9 9.8 2.1 9.5 2.3 9.3C2.5 9 2.8 8.8 3.1 8.5L3.6 8.2L3.9 8.1C4 8.2 4.1 8.1 4.2 8.1C4.6 8 5 8 5.4 8.1C5.5 8.1 5.6 8.1 5.7 8.2C7.3 8.6 8.7 9.3 9.6 10.3C8.7 9.1 7.6 8.4 6.2 8C6.5 7.9 6.8 7.8 7 7.8C7.4 7.7 7.9 7.7 8.4 7.8C9.2 7.9 10.1 8 11.2 8.4L11.5 8.5L12 7.6C12.1 7.5 12.2 7.3 12.4 7.1C12.5 7 12.8 6.6 13.2 6.1L14.2 5.1C14 5 13.9 4.9 13.8 4.7C13.5 4.4 13.2 4.1 13.1 3.7C13 3.3 13 2.8 13.2 2.3C13.3 2.1 13.4 1.9 13.6 1.6C13.7 1.4 13.9 1.2 14.1 1C14.3 0.8 14.6 0.6 14.8 0.4C15.1 0.2 15.4 0.1 15.7 0C16 0 16.4 0 16.7 0.1C17.1 0.2 17.4 0.4 17.7 0.6C18 0.9 18.3 1.2 18.5 1.5C18.6 1.7 18.7 1.9 18.8 2C19.3 1.9 19.8 1.8 20.4 1.7ZM16.6 0.7C16.4 0.6 16.1 0.6 15.8 0.7C15.4 0.8 15 1 14.5 1.5C14.3 1.7 14.1 1.9 14 2C13.9 2.2 13.7 2.4 13.7 2.6C13.5 3 13.5 3.3 13.5 3.6C13.6 3.9 13.8 4.1 14 4.4C14.1 4.5 14.3 4.6 14.4 4.7C14.6 4.8 14.8 4.9 15.1 5H15.3C15.5 5 15.9 5.1 16.3 5.1C16.6 5.1 16.8 5.1 16.8 5.1H17L16.2 5.3C15.8 5.3 15.5 5.4 15.2 5.3C15 5.3 14.8 5.2 14.7 5.2L13.5 6.4C13.1 6.9 12.8 7.2 12.8 7.4C12.6 7.6 12.5 7.8 12.5 7.9L12 8.7C12 8.9 11.9 9 11.8 9.1C11.4 9.8 11.1 10.3 10.9 10.7C10.8 10.9 10.6 11.2 10.5 11.5H10.6C10.9 11.6 11.2 11.8 11.6 12C12.3 12.3 12.8 12.7 13.2 13C13.7 13.4 14.1 13.8 14.4 14.2C14.4 14.3 14.5 14.4 14.6 14.5C14.7 14.7 14.8 14.8 14.8 14.8L15.5 16.1L15.7 16.5C15.8 16.6 15.9 17 16 17.5L16.1 17.9H16.4H16.5C16.7 17.9 16.9 18 17.2 18.1C17.5 18.2 17.7 18.4 17.9 18.7C18.1 19 18.3 19.3 18.5 19.7C18.6 20.1 18.7 20.6 18.7 21.1C18.7 21.6 18.6 22.2 18.3 22.8C18.2 23 18.2 23.1 18.1 23.2C18.1 23.3 18 23.4 18 23.4L17.8 23.6C17.6 23.9 17.3 24.1 17 24.3C16.4 24.6 15.6 24.8 14.6 24.8H14.1C13.8 25 13.6 25.2 13.4 25.3C13 25.6 12.7 25.8 12.3 26C11.7 26.3 11.1 26.6 10.5 26.7H10.4C9.8 26.8 9.3 26.8 8.9 26.7C8.7 26.7 8.4 26.6 8.1 26.5L7.7 26.3C7.7 26.3 7.6 26.4 7.6 26.5L7.7 26.7C7.8 26.9 7.9 27 8 27.2L8.3 27.6C8.3 27.6 8.4 27.7 8.5 27.8L9.1 28.5C9.2 28.7 9.3 28.8 9.4 28.9V29H9.3C9.2 29 9.2 28.9 9.1 28.9L8.8 28.7L8.6 28.5L8.5 29.7C8.5 30.2 8.5 31 8.5 32.1V32.9C8.5 33.2 8.5 33.5 8.5 33.7C8.5 34.4 8.6 35 8.8 35.5C8.9 35.9 9 36.2 9.2 36.4C9.4 36.7 9.6 37 9.9 37.2C9.9 37.2 9.9 37.2 10 37.2C10.3 37.4 10.6 37.5 10.9 37.5C11 37.5 11.2 37.5 11.5 37.5C11.7 37.4 11.9 37.3 12 37.2L12.2 37L12.3 36.9C12.4 36.8 12.4 36.8 12.5 36.7C12.6 36.6 12.8 36.4 12.9 36.2C13.1 35.8 13.4 35.4 13.6 34.9C13.7 34.6 13.9 34.1 14.1 33.6C14.3 33 14.4 32.5 14.6 32.2H14.2C14.1 32.2 14 32.2 13.9 32.1C13.8 32 13.7 31.9 13.7 31.8C13.7 31.7 13.8 31.6 13.9 31.5C14 31.5 14.1 31.5 14.2 31.5L14.8 31.6C15 31.6 15.2 31.7 15.5 31.7C16 31.8 16.4 31.8 16.6 31.9L17.5 32C17.9 32 18.2 32.1 18.3 32.1H19.6C19.7 32.1 19.9 32.1 20.1 32.1H20.5C20.7 32.1 20.9 32.1 21 32.1H21.3H21.5L21.4 32.2C21.3 32.2 21.1 32.3 21 32.3C20.9 32.3 20.7 32.4 20.6 32.4L20 33C19.7 33.1 19.5 33.1 19.5 33.1L18.5 33.2C18.5 33.3 18.5 33.6 18.6 33.9C18.7 34.4 18.9 35.1 19.1 36C19.1 36.2 19.2 36.4 19.3 36.7C19.4 36.9 19.5 37.2 19.6 37.4C19.9 37.9 20.2 38.3 20.7 38.5C20.9 38.6 21.2 38.7 21.5 38.6C21.6 38.6 21.8 38.6 21.9 38.5H22C22.1 38.5 22.2 38.4 22.3 38.3C22.4 38.2 22.5 38.1 22.7 38C22.8 37.9 22.9 37.8 23 37.6C23.1 37.5 23.2 37.3 23.3 37.1L23.6 36.5C24.1 35.5 24.4 34.7 24.7 34.1C25.1 33.1 25.4 32.2 25.5 31.4L25.2 31.6C25 31.7 24.8 31.8 24.6 31.8C24.5 31.8 24.5 31.8 24.5 31.8C24.5 31.8 24.5 31.8 24.6 31.7L25 31.3C25.2 31.1 25.4 30.9 25.6 30.6C25.7 30.5 25.8 30.3 25.9 30.1L26 30C26.2 29.7 26.4 29.4 26.5 29C26.6 28.7 26.6 28.4 26.6 28.2C26.5 28.2 26.4 28.1 26.3 28C26.2 27.9 26.1 27.7 26 27.6C25.9 27.4 25.7 27.1 25.5 26.8C25.4 26.6 25.3 26.4 25.2 26.1C25.1 25.9 25 25.6 24.9 25.2C24.5 25.1 24.1 24.9 23.8 24.6C23.5 24.4 23.3 24.1 23.2 23.7L22.9 23C22.8 22.8 22.8 22.6 22.8 22.4C22.6 22.3 22.5 22.2 22.3 22.1C22 21.8 21.9 21.5 21.9 21.1C21.9 20.8 22 20.5 22.1 20.2C22.2 20 22.3 19.8 22.4 19.6C22.6 19.3 22.9 19 23.2 18.9H23.3C23.2 18.8 23.2 18.7 23.2 18.7H22.9C22.6 18.7 22.2 18.7 21.9 18.6C21.4 18.5 21.2 18.4 21.2 18.3C21.2 18.2 21.5 18.1 21.9 18.1C22.2 18.1 22.5 18.1 22.9 18.1C23.5 18.1 23.8 18.1 24 18.1L27.1 17.6C27.6 17.4 27.9 17.3 28 17.3C28 17.3 28.2 17.2 28.4 17.1L28.8 16.9C29.3 16.6 29.8 16.3 30.3 16C30.7 15.7 31.1 15.3 31.4 14.9L31.5 14.8C31.8 14.4 32 14 32.2 13.6L32.3 13.3C32.3 13.2 32.4 13.2 32.4 13.1V12.9C32.4 12.7 32.5 12.6 32.5 12.6L32.6 11.9V11.6C32.6 11.5 32.6 11.4 32.6 11.3V11.1C32.6 11 32.6 11 32.6 11C32.5 10.7 32.3 10.4 32 10.1C31.9 10 31.7 9.9 31.5 9.8L31 9.5C30.4 9.2 29.8 9 29 8.8C28.2 8.6 27.2 8.5 26 8.4C25.4 8.4 24.8 8.3 24.1 8.3C23.5 8.3 23.1 8.3 23.1 8.3C22.8 8.3 22.6 8.3 22.6 8.3C22.6 8.3 22.8 8.3 23.1 8.2C23.6 8.2 24 8.2 24.1 8.2C24.7 8.2 25.3 8.2 26 8.2C27.2 8.2 28.2 8.3 29.1 8.5C29.8 8.6 30.5 8.8 31.1 9.1V8.8C30.9 8 30.7 7.3 30.5 6.7L30.3 6.1C30.3 6 30.2 6 30.2 5.9C30.1 5.7 30 5.4 29.9 5.2C29.7 4.9 29.6 4.7 29.4 4.4C29.2 4.1 29 3.9 28.7 3.7C28.4 3.5 28.1 3.2 27.8 3.1C27.6 3 27.4 2.9 27.2 2.8C27 2.7 26.8 2.7 26.7 2.6C26.5 2.5 26 2.4 25.4 2.3C24.9 2.2 24.4 2.2 23.9 2.1C22.7 2 21.6 2 20.6 2.2C20.1 2.3 19.6 2.4 19.1 2.6V2.7C19.1 2.8 19.1 2.9 19.1 3C19.1 3.2 19 3.3 19 3.3L18.9 3.5L18.8 3.6C18.7 3.7 18.7 3.7 18.6 3.6C18.5 3.6 18.5 3.5 18.5 3.4V3.3V3.2C18.5 3.1 18.5 3 18.5 2.9V2.7C18.5 2.5 18.4 2.3 18.4 2.2C18.3 2 18.3 1.9 18.2 1.7C18 1.4 17.8 1.2 17.6 1C17.2 1 17.1 0.9 17 0.8H16.9L16.6 0.7ZM15 1.7C15.4 1.4 15.8 1.3 16.2 1.5C16.7 1.6 17 1.9 17.3 2.4C17.4 2.6 17.5 2.9 17.5 3.2C17 3.4 16.5 3.8 16.2 4.2C15.9 4.2 15.8 4.1 15.6 4.1C15.1 4 14.8 3.8 14.6 3.5C14.4 3.2 14.3 2.9 14.4 2.6C14.4 2.3 14.6 1.9 15 1.7ZM4.3 8.8C4 8.8 3.7 9 3.5 9.2C3.2 9.3 3 9.6 2.8 9.8C2.6 10 2.4 10.3 2.3 10.5C2.1 10.8 2 11 1.8 11.3C1.7 11.5 1.6 11.8 1.5 12C1.4 12.2 1.3 12.5 1.3 12.7C1.2 13.1 1.1 13.6 1.2 13.9C1.2 14.2 1.3 14.4 1.4 14.6C1.4 14.6 1.5 14.7 1.5 14.8C1.6 15 1.7 15.1 1.8 15.2L2 15.3C2 14.9 2 14.5 2.1 14.2C2.1 13.8 2.2 13.5 2.2 13.1C2.3 12.7 2.4 12.3 2.5 12C2.6 11.6 2.8 11.2 3 10.9C3 10.9 3.1 10.8 3.2 10.6L3.7 9.8C4 9.4 4.3 9.1 4.6 8.9C4.7 8.8 4.8 8.7 4.9 8.7C4.6 8.7 4.5 8.7 4.3 8.8ZM8.8 14.4C8.7 14.6 8.6 14.7 8.6 14.7C8.4 15.1 8.2 15.4 8.1 15.7C8 16 7.8 16.4 7.7 16.8C7.6 17.1 7.5 17.4 7.5 17.9V18.3C7.6 18.2 7.7 18.2 7.7 18.2C7.8 18.2 7.8 18.3 7.8 18.4V18.6C7.8 18.6 7.8 18.7 7.8 18.8C7.8 19 7.9 19.2 8 19.5C8.1 19.8 8.2 20.1 8.3 20.3L9.1 21.8C9.1 21.8 9.2 21.9 9.3 22.1C9.4 22.3 9.5 22.4 9.6 22.4L10.3 23.1L10.8 23.4C11 23.5 11.3 23.7 11.5 23.8C11.6 23.9 11.8 23.9 12 24H12.1C12.6 24.2 13.2 24.3 13.7 24.4C14 24.5 14.3 24.5 14.5 24.5C15.3 24.5 16 24.4 16.5 24.2C16.8 24.1 17 23.9 17.2 23.6C17.3 23.5 17.4 23.4 17.4 23.2C17.5 23.1 17.5 23 17.6 22.8C17.8 22.3 18 21.8 18 21.3C18 20.9 18 20.4 17.9 20C17.8 19.6 17.6 19.3 17.4 19.1C17.2 18.9 17 18.7 16.8 18.5C16.6 18.4 16.4 18.3 16.2 18.2H15.9H15.8L15.9 18.5L16 19.5L16.2 19.4H16.3V19.5V19.6C16.3 19.6 16.2 19.7 16.2 19.8V20C16.1 20.1 16 20.2 16 20.2C15.9 20.3 15.8 20.3 15.7 20.4C15.5 20.5 15.2 20.6 15 20.6C14.9 20.6 14.8 20.6 14.7 20.6C14.6 20.6 14.5 20.6 14.5 20.6C14.3 20.6 14.2 20.5 14 20.4L13.9 20.3C13.9 20.2 13.9 20.1 14 20C14.1 19.9 14.1 19.9 14.2 19.8L14.1 19.4L13.9 19.6C13.8 19.8 13.6 19.9 13.4 20C13.4 20 13.3 20 13.1 20C13 20 12.9 20 12.8 19.9C12.6 19.8 12.4 19.7 12.1 19.5C11.9 19.4 11.7 19.2 11.5 18.9L10.9 18.2C10.6 17.8 10.4 17.5 10.2 17.4C10 17 9.7 16.6 9.6 16.3C9.6 16.2 9.6 16.1 9.6 16C9.6 15.8 9.7 15.8 9.8 15.7C9.9 15.7 10 15.7 10.1 15.8C10.1 15.8 10.2 15.9 10.2 16C10.3 16.3 10.5 16.6 10.7 17C10.8 17.2 11 17.4 11.3 17.8C11.6 18.2 11.8 18.4 11.9 18.5C12.1 18.7 12.2 18.9 12.4 19C12.5 19.1 12.7 19.3 12.9 19.4C13 19.4 13.1 19.4 13.1 19.4C13.2 19.4 13.2 19.4 13.3 19.4C13.4 19.4 13.5 19.3 13.6 19.2L14 19L13.8 18.3C13.7 18.1 13.7 18 13.6 17.9L13.2 17.1C13 16.7 12.8 16.4 12.6 16.1C12.3 15.7 12 15.4 11.8 15.1C11.8 15.1 11.7 15 11.6 14.9C11.5 14.9 11.4 14.8 11.3 14.7L10.9 14.4L10.4 14.2C10.3 14.2 10.2 14.1 10 14L9.4 13.8C9.1 14 8.9 14.2 8.8 14.4ZM9.2 22.8C9.1 22.7 9 22.5 8.9 22.5L7.9 21C7.9 20.9 7.8 20.8 7.7 20.6L7.6 20.4C7.6 20.8 7.7 21.2 7.8 21.7C7.8 22 7.9 22.4 8 23C8.1 23.5 8.1 23.9 8.1 24.2C8.1 24.6 8.1 25 8.1 25.3L8.8 25.2C9 25.2 9.2 25.1 9.3 25.1C9.7 25 10.1 24.8 10.5 24.6C10.7 24.5 10.9 24.3 11 24.2C10.8 24.1 10.6 24 10.4 23.9L9.7 23.4C9.5 23.2 9.4 23.1 9.4 23.1L9.2 22.8ZM2.9 19.7C2.8 20 2.7 20.2 2.7 20.5C2.6 21 2.6 21.4 2.7 21.9C2.7 22.2 2.8 22.5 2.9 22.8C3 23.2 3.2 23.5 3.4 23.7C3.5 23.9 3.7 24 3.8 24.1L4 24.3H4.3C4.5 24.3 4.8 24.3 5 24.2C5.2 24.1 5.4 24 5.5 23.8C5.7 23.4 5.9 22.9 5.9 22.2C5.9 21.6 5.8 20.9 5.7 20.3V20.1H5.3L4.3 20C4.2 20 4.1 20 3.9 19.9C3.8 19.9 3.7 19.8 3.3 19.7H2.9ZM19.3 4.9V4.7C19.3 4.6 19.3 4.6 19.4 4.5C19.5 4.2 19.7 4 20 3.7C20.2 3.5 20.5 3.4 20.7 3.3C21.1 3.2 21.4 3.1 21.8 3.1C21.9 3.1 21.9 3.1 21.9 3.2C22 3.3 22 3.4 21.9 3.5C21.9 3.6 21.8 3.7 21.8 3.8H21.7C21.4 3.8 21.2 3.8 20.9 3.9C20.7 4 20.5 4.1 20.3 4.2C20.1 4.3 19.9 4.5 19.7 4.7L19.3 4.9ZM22.5 6.1C22.6 6.3 22.5 6.6 22.4 6.8C22.3 7 22.1 7.2 21.8 7.2C21.6 7.3 21.3 7.3 21.1 7.1C20.9 7 20.7 6.8 20.7 6.5C20.7 6.4 20.7 6.2 20.7 6.1H21.5L21.1 5.4C21.2 5.3 21.3 5.3 21.4 5.3C21.7 5.2 21.9 5.3 22.1 5.4C22.3 5.7 22.4 5.8 22.5 6.1ZM26.5 3.6C26.4 3.4 26.5 3.3 26.6 3.3C26.8 3.3 26.9 3.3 26.9 3.3C27.1 3.3 27.3 3.3 27.4 3.3C27.6 3.3 27.8 3.4 27.9 3.5C28 3.6 28.2 3.7 28.3 3.8C28.4 3.9 28.4 4 28.5 4C28.5 4.1 28.6 4.2 28.6 4.3V4.4H28.5C28.4 4.4 28.4 4.4 28.2 4.3C28 4 27.9 4 27.8 3.9C27.5 3.8 27.2 3.8 26.7 3.9H26.6C26.6 3.8 26.5 3.8 26.5 3.6ZM28.1 2.8C28.3 2.9 28.5 3.1 28.7 3.3C28.8 3.2 28.9 3.2 29 3.1C29.1 3.1 29.2 3.1 29.4 3.1C29.8 3.1 30.1 3.3 30.4 3.6C30.7 3.9 30.8 4.2 30.8 4.5C30.8 4.7 30.8 4.9 30.7 5.1C30.6 5.2 30.5 5.3 30.3 5.4C30.4 5.5 30.4 5.7 30.5 5.8H30.6L30.7 5.7C30.9 5.6 31.1 5.4 31.2 5.2C31.2 5.1 31.3 5 31.3 4.8C31.3 4.7 31.3 4.5 31.3 4.4C31.3 4.1 31.2 3.7 31 3.4C30.8 3 30.6 2.7 30.3 2.5C30 2.3 29.6 2.2 29.1 2.3C28.8 2.4 28.5 2.6 28.1 2.8ZM27.8 5.8C27.9 5.7 28 5.7 28.1 5.7C28.4 5.6 28.6 5.7 28.8 5.8C29 5.9 29.2 6.1 29.2 6.4C29.3 6.6 29.2 6.9 29.1 7.1C29 7.3 28.8 7.5 28.5 7.5C28.3 7.6 28 7.6 27.8 7.4C27.6 7.3 27.4 7.1 27.4 6.8C27.4 6.7 27.4 6.5 27.4 6.4H28.2L27.8 5.8ZM31.3 10.1C31.6 10.2 31.8 10.5 31.7 10.9C31.6 11.3 31.3 11.7 30.7 12.1C30.2 12.5 29.7 12.6 29.3 12.5C28.9 12.4 28.5 12.1 28.1 11.7C27.7 11.3 27.5 10.8 27.5 10.5C27.5 10.1 27.7 9.8 28.2 9.8C28.7 9.7 29.2 9.7 29.8 9.8C30.5 9.8 31 9.9 31.3 10.1ZM25.3 11.8C25.3 11.8 25.4 11.8 25.4 11.9C25.4 11.9 25.5 12 25.4 12.2C25.4 12.4 25.3 12.5 25.2 12.5C25 12.5 24.7 12.6 24.5 12.7C24.6 13.1 24.7 13.5 24.9 13.8C25 14 25.2 14.1 25.4 14.3C25.5 14.3 25.5 14.4 25.7 14.5L26 14.6C26.3 14.7 26.6 14.8 27 14.9C27.3 14.9 27.5 15 27.7 15C27.9 15 28.1 15 28.4 15H28.5H28.3C28.1 15.1 27.9 15.2 27.6 15.2C27.4 15.2 27.1 15.3 26.8 15.2C26.4 15.2 26 15.1 25.7 15H25.5C25.3 14.9 25.2 14.9 25.2 14.8C24.9 14.6 24.7 14.4 24.5 14.2C24.3 13.9 24.2 13.6 24.1 13.3L24 13.1L23.9 13.2C23.8 13.3 23.7 13.3 23.7 13.4H23.6C23.6 13.4 23.6 13.4 23.6 13.3C23.6 13.2 23.6 13.1 23.7 13C23.7 12.9 23.8 12.7 24 12.5L24.1 12.4C24.2 12.3 24.4 12.1 24.6 12C24.7 11.9 25 11.8 25.3 11.8ZM25.1 19.1C25 19.1 24.9 19.2 24.8 19.2H24.5V19.3C24.5 19.4 24.6 19.4 24.6 19.5C24.6 19.6 24.6 19.7 24.6 19.8C24.6 20 24.6 20.2 24.6 20.5C24.6 20.8 24.6 21 24.5 21.2C24.4 21.4 24.4 21.5 24.4 21.6C24.4 21.7 24.4 21.7 24.3 21.8L24.2 22C24 22.2 23.8 22.4 23.6 22.4C23.4 22.4 23.3 22.5 23.1 22.4C23.1 22.5 23.2 22.6 23.2 22.8L23.4 23.4L23.5 23.6C23.7 23.9 23.8 24.2 24.1 24.4C24.3 24.6 24.5 24.7 24.7 24.8C24.8 24.8 24.9 24.9 25 24.9C25.2 24.9 25.4 25 25.7 25C26 25 26.2 25 26.4 24.9C26.5 24.9 26.6 24.8 26.6 24.8C26.7 24.7 26.9 24.7 26.9 24.6C27 24.5 27 24.5 27.1 24.4C27.2 24.3 27.3 24.1 27.3 23.9C27.4 23.7 27.4 23.4 27.5 23C27.5 22.7 27.5 22.4 27.5 22C27.5 21.6 27.4 21.3 27.4 21C27.3 20.6 27.2 20.2 27 20C26.8 19.6 26.5 19.4 26.2 19.3C25.9 19.1 25.5 19.1 25.1 19.1ZM23.5 19C23.5 19 23.4 19 23.3 19.1C23.1 19.2 22.9 19.5 22.7 19.8C22.6 19.9 22.5 20.1 22.5 20.3C22.5 20.4 22.4 20.5 22.4 20.6C22.4 20.8 22.4 20.9 22.4 21C22.4 21.3 22.5 21.5 22.7 21.6C22.8 21.7 22.8 21.7 22.9 21.7C23 21.8 23.2 21.8 23.4 21.7C23.5 21.7 23.6 21.6 23.7 21.5L23.8 21.3L23.9 21.2V21.1C23.9 20.9 24 20.7 24 20.5C24 20.2 24 19.9 24 19.8C24 19.7 24 19.6 24.1 19.5V19.4C24 19.2 23.9 19.1 23.6 19.1C23.6 19.1 23.6 19.1 23.5 19ZM19.5 25.5C19.6 25.4 19.6 25.3 19.8 25.2C19.9 25.1 20 25.1 20.1 25.1C20.3 25.1 20.5 25.1 20.7 25.3C20.8 25.4 20.9 25.4 20.9 25.5C21 25.6 21 25.6 21 25.7C21 25.7 21 25.8 21 25.9V26V26.1C21 26.2 20.9 26.3 20.8 26.4C20.7 26.5 20.7 26.5 20.7 26.5L20.6 26.6H20.5C20.3 26.7 20.2 26.7 20 26.6C19.9 26.6 19.9 26.6 19.8 26.6L19.6 26.4V26.3H19.7H19.8H20C20.1 26.3 20.2 26.3 20.3 26.2C20.4 26.1 20.5 26 20.5 25.9V26V25.9C20.5 25.9 20.5 25.8 20.4 25.8L20.3 25.7C20.2 25.6 20.1 25.6 20 25.6C19.9 25.6 19.8 25.7 19.7 25.8C19.7 25.8 19.7 25.8 19.6 25.9C19.5 25.9 19.5 26 19.4 25.9C19.3 25.9 19.3 25.9 19.3 25.8C19.4 25.6 19.5 25.6 19.5 25.5ZM6.7 28.4C6.7 28.6 6.8 28.8 6.9 28.9C7 29.1 7.1 29.2 7.3 29.3C7.5 29.4 7.7 29.4 8 29.4H8.2L8.3 28.7L8.1 28.5C7.9 28.3 7.8 28.2 7.8 28.2L7.1 27.3C7 27.4 6.9 27.5 6.9 27.5C6.7 27.9 6.6 28.2 6.7 28.4Z" fill="white"/>
<path d="M56.4 24.1C56.4 27.8 53.4 30.1 49.7 30.1H41V9.5H49.1C52.7 9.5 55.6 11.8 55.6 15.4C55.6 17.1 54.9 18.5 53.8 19.4C55.4 20.4 56.4 22 56.4 24.1ZM45.8 13.9V17.6H49.2C50.3 17.6 51 16.8 51 15.8C51 14.8 50.3 14 49.2 14H45.8V13.9ZM51.7 23.7C51.7 22.6 50.9 21.7 49.8 21.7H45.9V25.6H49.8C50.9 25.7 51.7 24.9 51.7 23.7Z" fill="white"/>
<path d="M66.4 26.6C67.6 26.6 68.6 26.1 69.2 25.5L72.7 27.5C71.3 29.5 69.1 30.5 66.3 30.5C61.3 30.5 58.1 27.1 58.1 22.7C58.1 18.3 61.3 14.9 65.9 14.9C70.2 14.9 73.4 18.2 73.4 22.7C73.4 23.3 73.3 23.9 73.2 24.5H62.8C63.4 26 64.7 26.6 66.4 26.6ZM69.1 21.2C68.6 19.5 67.3 18.9 66 18.9C64.3 18.9 63.2 19.7 62.8 21.2H69.1Z" fill="white"/>
<path d="M90.9 15.4V30.1H86.5V28.7C85.5 29.8 84.1 30.5 82.1 30.5C78.2 30.5 75.1 27.1 75.1 22.7C75.1 18.3 78.3 14.9 82.1 14.9C84.1 14.9 85.5 15.6 86.5 16.7V15.3H90.9V15.4ZM86.5 22.7C86.5 20.5 85 19.1 83 19.1C81 19.1 79.5 20.5 79.5 22.7C79.5 24.9 81 26.3 83 26.3C85 26.3 86.5 25 86.5 22.7Z" fill="white"/>
<path d="M103 15.1V20.1C101.2 19.8 98.6 20.5 98.6 23.5V30.2H94.2V15.4H98.6V18C99.2 16 101.2 15.1 103 15.1Z" fill="white"/>
<path d="M125.6 21.3C125.6 26.3 121.8 30.4 115.6 30.4C109.2 30.4 104.8 25.7 104.8 19.8C104.8 13.9 109.2 9.2 115.5 9.2C119.3 9.2 122.7 11.2 124.4 14.2L123 15C121.6 12.4 118.8 10.7 115.5 10.7C110.1 10.7 106.3 14.8 106.3 19.8C106.3 24.9 110 28.9 115.6 28.9C120.6 28.9 123.6 25.8 124 21.9H115.2V20.4H125.5V21.3H125.6Z" fill="white"/>
<path d="M128.3 22.7C128.3 18.3 131.7 15 136 15C140.3 15 143.7 18.3 143.7 22.7C143.7 27.1 140.3 30.4 136 30.4C131.7 30.4 128.3 27.1 128.3 22.7ZM142.2 22.7C142.2 19.2 139.5 16.4 136 16.4C132.5 16.4 129.8 19.2 129.8 22.7C129.8 26.2 132.5 29 136 29C139.5 29 142.2 26.3 142.2 22.7Z" fill="white"/>
</svg>
