<svg xmlns="http://www.w3.org/2000/svg" width="15.201" height="20" viewBox="0 0 15.201 20">
  <path id="trash" d="M3.389,7.113l1.1,10.908C4.551,18.482,6.777,20,10,20s5.451-1.518,5.511-1.979l1.1-10.908A14.36,14.36,0,0,1,10,8.5,14.354,14.354,0,0,1,3.389,7.113Zm9.779-5.6L12.309.559C11.977.086,11.617,0,10.916,0H9.085c-.7,0-1.061.086-1.392.559l-.859.951C4.264,1.959,2.4,3.15,2.4,4.029V4.2C2.4,5.746,5.8,7,10,7s7.6-1.254,7.6-2.8v-.17c0-.879-1.863-2.07-4.433-2.519Zm-1.1,2.83L11,3H9L7.932,4.34h-1.7S8.094,2.119,8.343,1.818A.764.764,0,0,1,8.979,1.5h2.043a.765.765,0,0,1,.637.318c.248.3,2.111,2.522,2.111,2.522h-1.7Z" transform="translate(-2.4)" fill="#fff"/>
</svg>
